<?xml version="1.0" standalone="no"?>
<!DOCTYPE svg PUBLIC "-//W3C//DTD SVG 20010904//EN"
 "http://www.w3.org/TR/2001/REC-SVG-20010904/DTD/svg10.dtd">
<svg version="1.0" xmlns="http://www.w3.org/2000/svg"
 width="512.000000pt" height="512.000000pt" viewBox="0 0 512.000000 512.000000"
 preserveAspectRatio="xMidYMid meet">

<g transform="translate(0.000000,512.000000) scale(0.100000,-0.100000)"
fill="#000000" stroke="none">
<path d="M2931 5092 c-25 -24 -28 -36 -34 -118 -10 -167 -68 -294 -202 -446
l-76 -87 -752 -3 -752 -3 -53 -30 c-42 -24 -149 -137 -536 -567 -266 -295
-492 -554 -502 -575 -18 -37 -19 -89 -19 -1558 l0 -1520 22 -40 c25 -47 74
-95 123 -121 34 -18 100 -19 1895 -19 l1861 0 47 25 c71 38 1101 971 1135
1028 l27 47 0 1575 0 1575 -22 41 c-12 23 -41 58 -65 78 -77 66 -74 66 -745
66 -332 0 -603 2 -603 5 0 3 13 31 29 63 67 132 115 311 127 468 7 83 7 83
-24 113 -17 18 -41 31 -55 31 -18 0 -225 -117 -415 -234 -4 -2 -80 49 -167
115 -177 131 -197 139 -244 91z m256 -315 c56 -41 111 -78 122 -82 26 -8 64 9
211 98 69 42 127 72 128 66 2 -5 -8 -50 -22 -99 -27 -94 -68 -184 -119 -260
-16 -25 -264 -280 -551 -567 l-521 -523 -304 0 -305 0 515 518 c289 289 536
546 561 582 73 103 117 199 148 318 8 31 14 41 23 34 7 -5 58 -43 114 -85z
m-757 -514 c0 -5 -190 -198 -422 -430 l-423 -423 -602 0 c-332 0 -603 3 -603
6 0 11 732 819 758 836 25 17 75 18 660 18 347 0 632 -3 632 -7z m2390 -1 c0
-4 -195 -202 -434 -441 l-434 -434 -32 12 c-23 8 -210 11 -631 11 -330 0 -599
3 -599 7 0 5 190 198 422 430 l423 423 642 0 c354 0 643 -3 643 -8z m113
-3130 c-10 -12 -200 -186 -423 -387 l-405 -365 -5 1417 c-4 1047 -8 1425 -17
1443 -11 24 5 41 425 463 l437 437 3 -1492 c2 -1411 1 -1494 -15 -1516z
m-3393 1449 l0 -660 26 -20 c54 -43 73 -34 283 134 106 85 196 155 200 155 3
0 93 -70 200 -155 165 -132 199 -155 228 -155 23 0 42 8 58 25 l25 24 0 656 0
655 654 0 655 0 28 -24 28 -24 3 -1454 c1 -799 0 -1468 -3 -1487 -4 -18 -17
-44 -30 -57 l-24 -24 -1821 0 -1822 0 -29 29 -29 29 0 1472 c0 1279 2 1475 15
1500 8 15 20 30 27 33 7 3 309 6 671 6 l657 1 0 -659z m850 109 l0 -551 -124
100 c-156 126 -193 151 -222 151 -15 0 -79 -44 -174 -120 -82 -66 -152 -120
-155 -120 -3 0 -5 245 -5 545 l0 545 340 0 340 0 0 -550z"/>
<path d="M431 1003 c-18 -9 -45 -34 -60 -56 -26 -40 -26 -43 -29 -241 -2 -124
1 -215 7 -237 15 -51 48 -88 95 -110 39 -18 81 -19 751 -19 670 0 712 1 751
19 47 22 80 59 95 110 7 22 9 112 7 237 -3 198 -3 201 -30 241 -51 77 -7 73
-825 73 -656 0 -731 -2 -762 -17z m1449 -323 l0 -170 -685 0 -685 0 0 170 0
170 685 0 685 0 0 -170z"/>
<path d="M3365 929 c-109 -105 -130 -141 -114 -189 8 -22 23 -37 46 -47 32
-13 38 -12 73 6 l38 19 5 -35 c19 -115 167 -108 167 7 l0 41 30 -22 c62 -46
140 -12 140 60 0 33 -11 47 -108 144 -98 98 -110 107 -145 107 -34 0 -47 -9
-132 -91z"/>
<path d="M3265 478 c-32 -38 -29 -81 11 -115 24 -22 32 -23 215 -23 238 0 259
8 259 95 0 24 -7 39 -26 54 -25 20 -39 21 -229 21 l-203 0 -27 -32z"/>
</g>
</svg>
