<?xml version="1.0" standalone="no"?>
<!DOCTYPE svg PUBLIC "-//W3C//DTD SVG 20010904//EN"
 "http://www.w3.org/TR/2001/REC-SVG-20010904/DTD/svg10.dtd">
<svg version="1.0" xmlns="http://www.w3.org/2000/svg"
 width="512.000000pt" height="512.000000pt" viewBox="0 0 512.000000 512.000000"
 preserveAspectRatio="xMidYMid meet">

<g transform="translate(0.000000,512.000000) scale(0.100000,-0.100000)"
fill="#000000" stroke="none">
<path d="M2385 5104 c-168 -30 -331 -103 -466 -212 -379 -305 -493 -826 -275
-1260 56 -111 115 -189 213 -283 172 -163 374 -256 607 -278 294 -28 579 69
792 271 103 98 166 183 225 303 175 361 130 772 -122 1090 -227 288 -611 433
-974 369z m393 -214 c357 -101 600 -417 605 -785 2 -181 -38 -320 -138 -470
-154 -233 -403 -367 -685 -367 -381 0 -703 251 -801 624 -31 114 -31 289 0
403 85 322 355 565 686 619 67 10 261 -3 333 -24z"/>
<path d="M2892 4474 c-12 -8 -119 -131 -238 -272 -118 -141 -218 -258 -222
-260 -4 -1 -53 36 -108 83 -110 92 -143 106 -192 81 -60 -31 -71 -105 -24
-155 41 -45 263 -230 295 -247 30 -16 70 -12 98 9 8 7 133 153 277 325 247
296 262 315 262 353 0 78 -87 126 -148 83z"/>
<path d="M552 4865 c-60 -26 -74 -103 -29 -153 31 -34 472 -262 507 -262 19 0
42 11 62 29 43 38 46 98 8 135 -28 27 -451 252 -490 260 -14 3 -40 -1 -58 -9z"/>
<path d="M4484 4866 c-71 -31 -441 -230 -461 -249 -64 -58 -16 -167 73 -167
30 0 457 223 497 258 20 20 27 35 27 65 0 51 -15 76 -55 93 -41 17 -42 17 -81
0z"/>
<path d="M529 4162 c-51 -46 -40 -125 22 -157 25 -14 68 -16 275 -13 l246 3
24 28 c13 15 27 39 30 52 8 32 -21 90 -52 104 -16 7 -108 11 -269 11 l-245 0
-31 -28z"/>
<path d="M4038 4175 c-30 -17 -52 -71 -43 -108 4 -14 18 -36 32 -49 24 -23 28
-23 265 -26 254 -3 285 1 313 42 8 11 15 39 15 62 0 35 -5 47 -31 68 l-31 26
-246 0 c-196 -1 -252 -4 -274 -15z"/>
<path d="M993 3727 c-79 -30 -467 -244 -481 -266 -26 -39 -19 -91 17 -123 51
-46 72 -40 325 93 127 67 237 126 243 132 7 5 18 26 24 47 15 48 -8 96 -56
116 -19 8 -36 14 -37 13 -2 0 -17 -5 -35 -12z"/>
<path d="M4053 3725 c-61 -26 -79 -103 -36 -153 29 -33 475 -262 510 -262 19
0 44 10 62 26 26 21 31 33 31 69 0 26 -7 51 -17 64 -19 22 -451 253 -493 264
-14 3 -40 0 -57 -8z"/>
<path d="M693 2746 c-18 -16 -95 -156 -217 -398 -188 -370 -189 -373 -177
-410 18 -54 46 -68 141 -68 l80 0 0 -895 c0 -973 -2 -937 55 -963 38 -17 3932
-17 3970 0 57 26 55 -10 55 963 l0 895 84 0 c76 0 86 2 109 25 53 54 56 48
-149 453 -123 243 -199 382 -217 398 l-29 24 -1838 0 -1838 0 -29 -24z m1697
-183 c-1 -5 -56 -116 -123 -248 l-122 -240 -793 -3 -794 -2 128 250 128 250
788 0 c433 0 788 -3 788 -7z m2044 -243 l128 -250 -794 2 -793 3 -122 240
c-67 132 -122 243 -123 248 0 4 355 7 788 7 l788 0 128 -250z m-1941 -737 c20
-21 37 -28 67 -28 30 0 47 7 67 28 l28 27 5 316 5 316 88 -171 c49 -94 98
-178 110 -186 19 -13 120 -15 779 -15 l758 0 0 -835 0 -835 -870 0 -869 0 -3
301 -3 301 -28 24 c-19 16 -40 24 -67 24 -27 0 -48 -8 -67 -24 l-28 -24 -3
-301 -3 -301 -869 0 -870 0 0 835 0 835 758 0 c659 0 760 2 779 15 12 8 61 92
110 186 l88 171 5 -316 5 -316 28 -27z"/>
<path d="M2495 1277 c-17 -14 -28 -36 -32 -63 -4 -36 -1 -46 24 -74 25 -28 36
-33 73 -33 37 0 48 5 73 33 25 28 28 38 24 74 -7 54 -44 86 -97 86 -26 0 -48
-8 -65 -23z"/>
<path d="M1088 734 c-35 -19 -48 -43 -48 -92 0 -33 6 -45 31 -66 l31 -26 320
0 320 0 29 29 c48 49 38 125 -21 156 -42 22 -621 22 -662 -1z"/>
</g>
</svg>
