<?xml version="1.0" standalone="no"?>
<!DOCTYPE svg PUBLIC "-//W3C//DTD SVG 20010904//EN"
 "http://www.w3.org/TR/2001/REC-SVG-20010904/DTD/svg10.dtd">
<svg version="1.0" xmlns="http://www.w3.org/2000/svg"
 width="512.000000pt" height="512.000000pt" viewBox="0 0 512.000000 512.000000"
 preserveAspectRatio="xMidYMid meet">

<g transform="translate(0.000000,512.000000) scale(0.100000,-0.100000)"
fill="#000000" stroke="none">
<path d="M1905 4493 c-601 -73 -1089 -369 -1416 -857 -694 -1033 -244 -2440
926 -2891 207 -80 384 -115 625 -122 339 -11 615 46 905 187 138 66 318 182
357 229 78 92 24 238 -94 256 -60 9 -70 6 -185 -72 -184 -123 -387 -210 -597
-255 -86 -18 -134 -22 -316 -22 -189 -1 -228 2 -324 22 -1045 224 -1601 1336
-1145 2292 218 456 636 782 1145 891 96 21 134 24 324 23 240 0 318 -12 517
-79 607 -203 1048 -776 1091 -1416 9 -124 0 -326 -18 -401 -23 -104 -3 -166
69 -215 77 -52 202 -8 230 81 42 130 55 492 26 691 -45 307 -162 599 -345 857
-86 122 -281 322 -402 414 -282 212 -599 340 -948 384 -78 9 -356 12 -425 3z"/>
<path d="M2020 3918 c-69 -48 -74 -63 -80 -238 l-5 -159 -84 -42 c-200 -100
-315 -286 -315 -509 0 -161 55 -292 169 -404 102 -101 213 -150 376 -165 140
-13 203 -52 248 -151 55 -122 0 -269 -123 -326 -161 -75 -337 34 -353 217 -13
135 -123 204 -233 147 -67 -34 -93 -91 -85 -181 19 -207 133 -375 316 -466
l84 -42 5 -159 c4 -141 7 -162 26 -187 76 -102 220 -98 275 7 16 29 19 58 19
188 0 137 2 153 18 158 78 26 154 74 223 143 83 83 127 157 153 258 19 71 21
189 5 265 -17 83 -74 191 -134 256 -109 118 -226 175 -396 190 -52 5 -110 16
-130 26 -130 61 -183 221 -115 344 65 118 202 164 321 108 53 -24 109 -80 127
-125 5 -14 14 -55 19 -90 12 -82 38 -124 95 -152 77 -37 150 -15 202 61 42 62
24 216 -40 344 -43 85 -163 203 -248 243 -36 17 -73 34 -82 37 -16 5 -18 21
-18 158 0 130 -3 159 -19 188 -28 53 -74 80 -136 80 -38 0 -61 -6 -85 -22z"/>
<path d="M4730 2729 c-14 -5 -285 -270 -602 -587 l-578 -577 -242 242 c-134
133 -256 247 -271 252 -130 49 -256 -63 -217 -192 10 -35 61 -91 299 -330 157
-159 303 -303 324 -319 41 -33 110 -47 164 -34 39 10 1308 1275 1334 1331 10
22 19 53 19 69 0 40 -34 107 -67 131 -31 22 -124 31 -163 14z"/>
</g>
</svg>
