<?xml version="1.0" standalone="no"?>
<!DOCTYPE svg PUBLIC "-//W3C//DTD SVG 20010904//EN"
 "http://www.w3.org/TR/2001/REC-SVG-20010904/DTD/svg10.dtd">
<svg version="1.0" xmlns="http://www.w3.org/2000/svg"
 width="512.000000pt" height="512.000000pt" viewBox="0 0 512.000000 512.000000"
 preserveAspectRatio="xMidYMid meet">

<g transform="translate(0.000000,512.000000) scale(0.100000,-0.100000)"
fill="#000000" stroke="none">
<path d="M2452 4569 c-219 -26 -416 -124 -568 -281 -125 -129 -207 -278 -251
-456 -21 -85 -23 -300 -4 -397 62 -320 238 -700 526 -1141 l113 -171 -261
-119 c-144 -65 -269 -126 -279 -136 -17 -17 -18 -50 -18 -471 0 -347 3 -457
13 -470 11 -15 816 -387 838 -387 22 0 825 372 837 387 9 13 12 123 12 469 0
416 -1 453 -17 472 -10 11 -136 73 -279 138 l-262 118 81 120 c320 477 517
913 564 1247 22 156 9 295 -41 442 -106 310 -385 559 -696 620 -103 21 -221
27 -308 16z m313 -174 c33 -9 103 -37 155 -63 81 -39 109 -60 191 -142 108
-106 162 -192 205 -325 38 -116 44 -291 15 -431 -71 -347 -344 -870 -710
-1364 l-60 -80 -59 77 c-267 352 -550 850 -652 1147 -64 188 -83 297 -77 446
3 90 11 144 27 195 89 281 310 485 597 549 85 19 282 15 368 -9z m-328 -2500
c78 -102 108 -123 150 -103 15 7 58 54 96 103 38 50 73 92 78 93 9 4 358 -153
372 -167 4 -4 -123 -66 -282 -138 l-290 -132 -290 132 c-160 72 -287 135 -283
139 14 14 356 167 369 165 6 -1 42 -42 80 -92z m-129 -400 l172 -78 0 -337 0
-338 -310 142 -310 141 0 337 0 337 138 -63 c75 -34 215 -98 310 -141z m952
-132 l0 -338 -310 -142 -310 -141 0 337 0 337 308 141 c169 78 308 142 310
142 1 1 2 -151 2 -336z"/>
<path d="M2441 4084 c-186 -50 -327 -208 -354 -399 -37 -253 142 -493 401
-537 252 -42 500 140 544 400 56 331 -267 623 -591 536z m233 -160 c68 -23
147 -99 181 -175 24 -55 27 -71 23 -143 -5 -94 -36 -164 -99 -221 -72 -65
-113 -80 -219 -80 -106 0 -147 15 -219 80 -63 57 -94 127 -99 221 -4 72 -1 88
23 143 33 73 113 151 177 174 58 21 173 21 232 1z"/>
<path d="M4992 4053 c-11 -10 -126 -139 -257 -288 -131 -148 -251 -283 -266
-300 l-29 -30 -130 130 -130 130 -229 3 -229 3 -28 -24 c-37 -33 -38 -81 0
-114 26 -22 32 -23 225 -23 l197 0 143 -145 c140 -142 170 -163 208 -151 17 6
556 604 626 694 33 44 34 76 2 107 -29 30 -74 33 -103 8z"/>
<path d="M1167 3684 c-308 -66 -522 -346 -504 -659 9 -150 61 -274 164 -394
59 -69 178 -145 276 -178 l82 -27 328 -1 329 0 19 24 c24 30 24 72 0 102 l-19
24 -329 5 c-305 5 -332 7 -381 27 -128 52 -212 130 -271 253 -35 74 -36 77
-36 200 0 124 0 126 37 203 85 178 245 277 449 277 78 0 91 3 115 23 20 17 27
33 27 57 0 24 -7 40 -27 57 -24 20 -37 23 -109 22 -45 0 -113 -7 -150 -15z"/>
<path d="M3283 2570 c-44 -18 -57 -81 -24 -121 l19 -24 564 -5 563 -5 81 -28
c218 -73 393 -262 451 -487 22 -85 21 -244 -1 -330 -63 -240 -247 -426 -491
-497 -51 -14 -117 -17 -447 -21 l-388 -3 -20 -26 c-27 -34 -25 -74 4 -102 l23
-22 414 3 c458 4 462 5 607 73 101 48 168 94 241 167 109 108 174 218 216 364
21 74 25 106 25 227 0 171 -14 235 -80 372 -84 173 -207 298 -375 381 -179 88
-174 88 -805 91 -318 1 -564 -2 -577 -7z"/>
<path d="M25 1025 c-30 -30 -32 -64 -4 -99 l20 -26 733 0 733 0 21 23 c29 31
28 72 -3 102 l-24 25 -726 0 -726 0 -24 -25z"/>
</g>
</svg>
