<?xml version="1.0" standalone="no"?>
<!DOCTYPE svg PUBLIC "-//W3C//DTD SVG 20010904//EN"
 "http://www.w3.org/TR/2001/REC-SVG-20010904/DTD/svg10.dtd">
<svg version="1.0" xmlns="http://www.w3.org/2000/svg"
 width="512.000000pt" height="512.000000pt" viewBox="0 0 512.000000 512.000000"
 preserveAspectRatio="xMidYMid meet">

<g transform="translate(0.000000,512.000000) scale(0.100000,-0.100000)"
fill="#000000" stroke="none">
<path d="M64 5110 c-12 -4 -31 -21 -43 -36 -20 -26 -21 -36 -21 -295 l0 -269
29 -32 29 -33 241 -3 240 -3 17 -29 c26 -44 53 -50 205 -50 l139 0 -2 -247 -3
-247 -380 -287 c-337 -255 -381 -292 -393 -325 -10 -29 -12 -127 -10 -417 l3
-379 33 -29 c44 -40 93 -40 133 0 l29 29 0 359 1 358 337 255 c185 140 344
254 352 254 8 0 167 -114 352 -254 l337 -255 1 -358 0 -359 29 -29 c40 -40 89
-40 133 0 l33 29 3 379 c2 290 0 388 -10 417 -12 33 -56 70 -393 325 l-380
287 -3 247 -2 247 139 0 c153 0 179 6 205 51 l17 29 360 0 c375 0 387 1 421
44 36 43 16 117 -39 145 -15 7 -136 11 -382 11 l-361 0 0 140 0 140 1110 0
1110 0 0 -140 0 -139 -376 -3 -376 -3 -29 -33 c-38 -42 -38 -82 0 -124 l29
-33 381 -3 c315 -2 381 -5 381 -16 0 -8 14 -26 31 -40 30 -25 34 -26 175 -26
l144 0 -1 -247 0 -248 -365 -274 c-201 -151 -376 -286 -390 -299 l-24 -25 0
-370 0 -369 28 -25 c15 -14 81 -48 147 -76 l120 -52 5 -137 c5 -134 6 -138 33
-165 l27 -28 507 -3 c534 -3 551 -1 576 42 7 12 14 78 17 155 l5 134 125 54
c69 30 136 65 150 79 l25 24 3 352 c2 255 -1 360 -9 381 -9 20 -125 114 -396
318 l-383 290 0 244 0 245 140 0 c153 0 183 8 206 52 l15 28 224 0 225 0 32
29 33 29 0 282 0 282 -33 29 -32 29 -2483 -1 c-1365 0 -2492 -4 -2503 -9z
m476 -330 l0 -140 -170 0 -170 0 0 140 0 140 170 0 170 0 0 -140z m720 -40 l0
-180 -260 0 -260 0 0 180 0 180 260 0 260 0 0 -180z m3140 0 l0 -180 -260 0
-260 0 0 180 0 180 260 0 260 0 0 -180z m520 40 l0 -140 -160 0 -160 0 0 140
0 140 160 0 160 0 0 -140z m-425 -1352 l335 -253 0 -267 0 -268 -50 -25 c-27
-14 -52 -25 -55 -25 -3 0 -5 119 -5 265 0 291 -4 312 -57 334 -21 8 -166 11
-536 9 l-507 -3 -27 -28 -28 -27 -3 -274 -3 -275 -49 21 -50 21 0 273 0 273
338 256 c185 140 343 253 350 250 7 -2 163 -118 347 -257z m-225 -543 c-63
-63 -119 -115 -125 -115 -6 0 -62 52 -125 115 l-115 115 240 0 240 0 -115
-115z m-380 -150 l115 -115 -115 -115 c-63 -63 -118 -115 -122 -115 -5 0 -8
104 -8 230 0 127 3 230 8 230 4 0 59 -52 122 -115z m630 -117 l0 -233 -117
117 -118 118 115 115 c63 63 116 115 117 115 2 0 3 -105 3 -232z m-255 -258
l120 -120 -240 0 -240 0 120 120 c66 66 120 120 120 120 0 0 54 -54 120 -120z"/>
<path d="M965 4831 c-64 -27 -81 -110 -32 -158 60 -61 162 -19 162 67 0 66
-72 116 -130 91z"/>
<path d="M4105 4831 c-61 -25 -80 -108 -36 -155 79 -84 207 4 159 109 -20 44
-76 65 -123 46z"/>
<path d="M2525 4631 c-61 -25 -80 -108 -36 -155 79 -84 207 4 159 109 -20 44
-76 65 -123 46z"/>
<path d="M2225 2673 c-68 -15 -104 -69 -85 -128 6 -18 23 -42 38 -52 25 -17
54 -18 372 -18 382 0 383 0 410 64 23 58 -10 116 -75 131 -39 9 -620 12 -660
3z"/>
<path d="M2438 2273 c-32 -5 -76 -46 -80 -76 -10 -67 29 -113 105 -122 29 -4
233 -5 454 -3 l402 3 30 29 c44 42 44 100 0 142 l-30 29 -427 1 c-235 1 -439
0 -454 -3z"/>
<path d="M1969 2241 c-21 -22 -29 -39 -29 -66 0 -72 86 -119 152 -84 32 17 51
74 38 115 -23 70 -108 88 -161 35z"/>
<path d="M485 2111 c-11 -5 -29 -19 -40 -31 -19 -21 -20 -38 -23 -470 l-3
-449 -180 -3 -181 -3 -29 -33 c-37 -42 -38 -82 -1 -122 19 -22 39 -33 69 -37
l42 -6 -28 -41 c-75 -109 -105 -205 -105 -336 0 -131 30 -227 105 -336 l28
-41 -42 -6 c-30 -4 -50 -15 -69 -37 -37 -40 -36 -80 1 -122 l29 -33 2496 -3
2496 -2 32 29 c27 24 33 36 33 71 0 35 -6 47 -33 71 -23 20 -43 29 -68 29
l-35 0 29 43 c76 110 106 206 106 337 0 131 -30 227 -106 338 l-29 42 35 0
c25 0 45 9 68 29 27 24 33 36 33 71 0 35 -6 47 -33 71 l-32 29 -1735 0 -1734
0 -3 451 -3 451 -33 29 -32 29 -503 -1 c-276 0 -511 -4 -522 -8z m632 -308
l-117 -118 -117 118 -118 117 235 0 235 0 -118 -117z m-380 -380 l-117 -118 0
235 0 235 117 -118 118 -117 -118 -117z m643 115 l0 -233 -117 117 -118 118
115 115 c63 63 116 115 117 115 2 0 3 -105 3 -232z m-260 -263 l115 -115 -235
0 -235 0 115 115 c63 63 117 115 120 115 3 0 57 -52 120 -115z m-410 -340
c108 -37 206 -148 236 -265 39 -153 -22 -311 -156 -402 -172 -118 -403 -72
-522 102 -118 172 -72 403 102 522 98 67 226 83 340 43z m1382 -17 c-76 -111
-106 -207 -106 -338 0 -131 30 -227 106 -337 l29 -43 -551 0 -551 0 29 43 c76
110 106 206 106 337 0 131 -30 227 -106 338 l-29 42 551 0 551 0 -29 -42z
m598 17 c108 -37 206 -148 236 -265 39 -153 -22 -311 -156 -402 -172 -118
-403 -72 -522 102 -118 172 -72 403 102 522 98 67 226 83 340 43z m1382 -17
c-76 -111 -106 -207 -106 -338 0 -131 30 -227 106 -337 l29 -43 -551 0 -551 0
29 43 c76 110 106 206 106 337 0 131 -30 227 -106 338 l-29 42 551 0 551 0
-29 -42z m598 17 c108 -37 206 -148 236 -265 39 -153 -22 -311 -156 -402 -172
-118 -403 -72 -522 102 -118 172 -72 403 102 522 98 67 226 83 340 43z"/>
<path d="M545 671 c-64 -27 -81 -110 -32 -158 60 -61 162 -19 162 67 0 66 -72
116 -130 91z"/>
<path d="M2525 671 c-64 -27 -81 -110 -32 -158 60 -61 162 -19 162 67 0 66
-72 116 -130 91z"/>
<path d="M4505 671 c-64 -27 -81 -110 -32 -158 60 -61 162 -19 162 67 0 66
-72 116 -130 91z"/>
</g>
</svg>
