<?xml version="1.0" standalone="no"?>
<!DOCTYPE svg PUBLIC "-//W3C//DTD SVG 20010904//EN"
 "http://www.w3.org/TR/2001/REC-SVG-20010904/DTD/svg10.dtd">
<svg version="1.0" xmlns="http://www.w3.org/2000/svg"
 width="512.000000pt" height="512.000000pt" viewBox="0 0 512.000000 512.000000"
 preserveAspectRatio="xMidYMid meet">

<g transform="translate(0.000000,512.000000) scale(0.100000,-0.100000)"
fill="#000000" stroke="none">
<path d="M1027 4093 c-4 -3 -7 -557 -7 -1230 l0 -1223 1078 0 1077 0 457 -305
c252 -168 460 -305 463 -305 3 0 5 182 5 405 l0 405 -105 0 -105 0 0 -200 c0
-110 -2 -200 -5 -200 -3 0 -140 90 -305 200 l-300 200 -1025 0 -1025 0 0 1025
0 1025 1330 0 1330 0 0 -615 0 -616 103 3 102 3 0 715 0 715 -1531 3 c-842 1
-1534 -1 -1537 -5z"/>
<path d="M2925 3070 l-480 -480 -270 180 c-148 99 -272 180 -275 180 -3 0 -20
-24 -37 -52 -18 -29 -42 -67 -53 -85 l-21 -32 341 -227 341 -228 542 542 542
542 -70 70 c-38 38 -72 70 -75 70 -3 0 -221 -216 -485 -480z"/>
<path d="M3890 2255 l0 -205 105 0 105 0 -2 203 -3 202 -102 3 -103 3 0 -206z"/>
</g>
</svg>
