<?xml version="1.0" standalone="no"?>
<!DOCTYPE svg PUBLIC "-//W3C//DTD SVG 20010904//EN"
 "http://www.w3.org/TR/2001/REC-SVG-20010904/DTD/svg10.dtd">
<svg version="1.0" xmlns="http://www.w3.org/2000/svg"
 width="512.000000pt" height="512.000000pt" viewBox="0 0 512.000000 512.000000"
 preserveAspectRatio="xMidYMid meet">

<g transform="translate(0.000000,512.000000) scale(0.100000,-0.100000)"
fill="#000000" stroke="none">
<path d="M3435 4721 c-44 -11 -70 -27 -99 -61 -55 -66 -56 -65 49 -557 52
-246 102 -467 111 -491 33 -89 113 -117 313 -110 133 5 167 15 207 60 12 12
26 32 32 44 16 30 202 911 202 953 0 42 -34 106 -71 133 -14 11 -43 23 -65 28
-46 11 -635 11 -679 1z m655 -151 c12 -7 0 -76 -79 -452 -64 -302 -98 -447
-109 -455 -17 -14 -238 -18 -259 -5 -6 4 -54 207 -106 452 -86 403 -94 446
-79 458 19 15 608 17 632 2z"/>
<path d="M1455 4073 c-46 -24 -66 -45 -86 -88 -24 -52 -24 -100 2 -225 11 -56
17 -105 12 -109 -4 -4 -30 -16 -58 -26 -83 -30 -205 -96 -285 -156 -568 -422
-641 -1229 -157 -1745 164 -176 407 -307 646 -349 108 -19 308 -19 408 0 43 8
81 15 85 15 4 0 9 -199 10 -443 l3 -444 27 -35 c15 -19 44 -44 65 -54 36 -18
70 -19 671 -19 l634 0 19 24 c25 30 24 76 -1 101 -19 19 -33 20 -344 20 l-325
0 -11 58 c-31 146 -107 281 -213 377 -74 68 -215 140 -307 159 l-65 13 -3 150
-3 151 33 11 c46 16 162 86 232 139 221 169 359 387 436 690 l11 42 736 -2
735 -3 19 -75 c65 -261 271 -463 524 -514 l60 -13 3 -286 2 -287 -27 -6 c-170
-36 -269 -88 -379 -198 -94 -95 -154 -200 -182 -323 l-19 -78 -326 -3 -326 -2
-20 -26 c-27 -35 -26 -57 3 -91 l24 -28 634 0 633 0 40 23 c22 13 52 39 65 59
l25 37 0 921 0 921 -27 41 c-14 22 -43 48 -65 59 -37 18 -78 19 -1079 22
l-1041 2 -6 123 c-9 217 -90 442 -225 624 -66 88 -94 113 -130 113 -30 0 -72
-42 -72 -73 0 -13 29 -62 70 -115 80 -106 137 -218 176 -347 26 -83 28 -103
28 -270 1 -158 -2 -190 -22 -265 -27 -98 -84 -224 -139 -307 -50 -76 -162
-194 -243 -255 -83 -63 -242 -141 -345 -169 -102 -27 -313 -37 -423 -19 -329
53 -611 263 -757 564 -272 559 22 1232 620 1419 236 73 511 54 733 -53 46 -22
93 -40 104 -40 53 0 88 52 68 101 -13 31 -77 68 -188 109 -42 16 -76 32 -76
37 1 4 12 63 25 130 26 140 21 177 -34 240 -53 60 -69 63 -339 63 -202 -1
-248 -3 -273 -17z m505 -148 c16 -19 -29 -241 -49 -237 -44 9 -237 12 -298 5
l-72 -9 -10 45 c-24 113 -34 180 -28 195 6 14 33 16 225 16 180 0 222 -3 232
-15z m2998 -1607 c9 -9 12 -73 12 -226 l0 -215 -42 7 c-59 9 -153 55 -216 105
-93 74 -167 193 -187 304 l-7 37 214 0 c153 0 217 -3 226 -12z m-5 -1765 c-26
-20 -433 -18 -433 1 0 36 44 148 78 202 70 107 192 197 313 227 l54 14 3 -216
c2 -194 1 -217 -15 -228z m-2614 391 c130 -64 239 -196 275 -335 7 -30 12 -57
9 -61 -5 -9 -404 -11 -427 -2 -14 5 -16 35 -16 226 l0 221 43 -7 c23 -3 75
-23 116 -42z"/>
<path d="M502 4017 c-12 -13 -22 -36 -22 -51 0 -28 39 -76 62 -76 7 0 29 -5
49 -10 l37 -10 -117 -118 c-317 -319 -487 -706 -508 -1157 -16 -348 83 -711
273 -1003 311 -476 834 -777 1382 -794 103 -3 104 -3 128 25 30 35 30 59 2 91
-21 24 -32 27 -153 36 -176 13 -286 35 -428 86 -610 218 -1023 775 -1054 1424
-21 441 147 869 467 1190 l105 105 5 -71 c4 -52 10 -78 24 -93 25 -27 79 -28
106 -1 18 18 20 33 20 179 0 136 -2 162 -17 180 -13 16 -54 31 -153 56 -161
41 -180 42 -208 12z"/>
<path d="M3605 3246 c-37 -17 -80 -62 -94 -99 -14 -37 -14 -287 0 -324 15 -40
48 -73 94 -94 32 -15 65 -19 170 -19 156 0 198 14 242 81 26 40 28 50 31 169
5 180 -15 238 -99 280 -33 17 -58 20 -176 20 -93 -1 -148 -5 -168 -14z m293
-250 c2 -72 -1 -113 -9 -122 -9 -11 -36 -14 -123 -12 l-111 3 -3 109 c-1 61 0
116 2 123 4 11 32 13 123 11 l118 -3 3 -109z"/>
<path d="M1680 3040 c-19 -19 -20 -33 -20 -282 l0 -262 128 -128 c111 -111
132 -128 160 -128 42 0 72 30 72 73 0 28 -14 47 -105 137 l-105 105 0 226 c0
214 -1 228 -21 253 -26 33 -79 36 -109 6z"/>
<path d="M3520 1960 c-14 -14 -20 -33 -20 -63 0 -43 -1 -44 -57 -73 -133 -68
-171 -227 -80 -331 32 -36 107 -76 236 -124 79 -30 121 -67 121 -106 -1 -58
-57 -97 -138 -95 -66 0 -117 20 -165 61 -52 46 -81 49 -118 12 -38 -38 -34
-69 14 -119 28 -29 115 -78 170 -96 13 -4 17 -16 17 -49 0 -33 6 -49 23 -65
52 -49 127 -8 127 67 0 38 2 41 38 52 134 40 217 195 168 313 -34 82 -88 120
-270 192 -113 44 -136 66 -117 113 27 65 132 75 225 22 31 -17 68 -31 84 -31
59 0 94 78 53 119 -26 26 -98 66 -143 81 -35 11 -38 14 -38 49 0 78 -79 122
-130 71z"/>
</g>
</svg>
