<?xml version="1.0" encoding="UTF-8"?>
<svg version="1.1" xmlns="http://www.w3.org/2000/svg" width="512" height="512">
<path d="M0 0 C1.1884017 -0.00445784 2.3768034 -0.00891569 3.60121727 -0.01350862 C5.56168212 -0.01323207 5.56168212 -0.01323207 7.56175232 -0.01294994 C8.96321019 -0.01624972 10.36466711 -0.01997553 11.76612282 -0.02409142 C15.62185617 -0.03410682 19.47757396 -0.03782748 23.33331847 -0.04048073 C27.49030579 -0.04438522 31.6472808 -0.05396354 35.80426025 -0.0626936 C45.84648852 -0.08245522 55.8887178 -0.09252441 65.93096066 -0.10142139 C70.66134647 -0.10580529 75.39173116 -0.11117188 80.12211609 -0.11641026 C95.84981555 -0.13342319 111.57751431 -0.14791658 127.30522156 -0.155159 C131.38658143 -0.15706886 135.4679413 -0.1589892 139.54930115 -0.16094494 C141.07088601 -0.16167055 141.07088601 -0.16167055 142.62320995 -0.16241082 C159.04956076 -0.17070816 175.47583868 -0.19603979 191.90215766 -0.22852562 C208.77116882 -0.26161457 225.64014297 -0.27960947 242.50918674 -0.28280324 C251.97866904 -0.28496677 261.44804509 -0.2936923 270.91749573 -0.31926441 C278.98361256 -0.3409966 287.04959733 -0.3490095 295.11574012 -0.33929763 C299.228649 -0.33476005 303.34128554 -0.33660733 307.45415688 -0.35605907 C311.22594199 -0.37374294 314.99725715 -0.37265123 318.76904762 -0.35716178 C320.76620162 -0.3536792 322.76336085 -0.36977301 324.76044559 -0.38676625 C340.05206142 -0.27825748 352.84869202 5.37423348 364.04393005 15.73578358 C372.6157878 25.20182793 378.37858264 37.35074813 378.32019043 50.23059559 C378.31753174 51.73594364 378.31753174 51.73594364 378.31481934 53.27170277 C378.30800644 54.36167561 378.30119354 55.45164845 378.29417419 56.57465076 C378.28805937 58.97168401 378.28213249 61.36871773 378.27636719 63.76575184 C378.26935885 65.66929558 378.26935885 65.66929558 378.26220894 67.61129475 C378.25087037 71.58798691 378.25077484 75.56456929 378.25643921 79.54126453 C378.25781933 80.55001546 378.25781933 80.55001546 378.25922734 81.57914519 C378.26219802 83.64958737 378.26536264 85.7200292 378.26853943 87.79047108 C378.28131882 96.34729131 378.2833563 104.90365332 378.23997498 113.46039295 C378.20839989 119.70942808 378.20524169 125.95776671 378.23473448 132.20682168 C378.24923364 135.5091249 378.24526374 138.80972493 378.21533394 142.11196613 C378.18386055 145.80116206 378.20214266 149.48707035 378.23167419 153.17621326 C378.21069168 154.25808918 378.18970917 155.3399651 378.16809082 156.45462513 C378.29588908 163.67343602 380.08568612 167.20532106 385.25588131 172.25246525 C386.22604356 173.18393438 386.22604356 173.18393438 387.21580505 174.13422108 C406.33582416 198.45274099 413.29203788 230.66819102 409.89500427 260.99847889 C405.19095552 292.6750745 388.72934456 321.59265537 362.98191833 340.88568592 C359.59706312 343.27857362 356.08566666 345.44635156 352.52830505 347.57172108 C351.83978455 347.98502674 351.15126404 348.39833241 350.44187927 348.82416248 C346.86743777 350.88336086 343.38601049 352.49959686 339.45481873 353.76727772 C338.65718613 354.02650517 337.85955353 354.28573261 337.03775024 354.55281544 C336.43650833 354.7446793 335.83526642 354.93654316 335.21580505 355.13422108 C335.2246875 355.86147892 335.23356995 356.58873676 335.24272156 357.33803272 C335.32331239 364.23638608 335.38399353 371.13466787 335.42305374 378.03337288 C335.44381125 381.57899559 335.47190737 385.12422502 335.51756287 388.66962147 C335.56987461 392.75811723 335.58884781 396.84620853 335.60643005 400.93500233 C335.6270752 402.19065495 335.64772034 403.44630756 335.66899109 404.74001026 C335.67191585 416.36081823 332.92158607 425.36493033 325.21580505 434.13422108 C324.71435974 434.74008045 324.21291443 435.34593983 323.6962738 435.97015858 C317.87431188 442.4578923 308.99056289 447.54166475 300.19212341 448.31122303 C285.26454278 448.73938241 273.93641142 447.29474674 262.21580505 437.13422108 C251.82345905 426.06497898 248.86758543 414.61990157 249.02049255 399.75531483 C249.0247374 398.17630138 249.0247374 398.17630138 249.02906799 396.56538868 C249.04017943 393.23404591 249.06526708 389.9029813 249.09080505 386.57172108 C249.10084654 384.30024061 249.10997033 382.02875589 249.1181488 379.75726795 C249.14008909 374.21615892 249.17347556 368.67520988 249.21580505 363.13422108 C247.27517323 363.13836915 247.27517323 363.13836915 245.29533672 363.14260101 C214.55870548 363.20762644 183.82209285 363.25706857 153.08540929 363.28741707 C149.2992032 363.29116902 145.51299726 363.295052 141.72679138 363.299016 C140.5961812 363.3001964 140.5961812 363.3001964 139.4427304 363.30140064 C127.25103685 363.3144414 115.0593859 363.33808789 102.86771759 363.36567947 C90.35051977 363.39377072 77.8333442 363.41040519 65.31611615 363.41648656 C57.59727148 363.4205953 49.87854724 363.43355503 42.15973965 363.45797048 C36.23300008 363.47575824 30.30632174 363.47757732 24.37955475 363.47354412 C21.95404381 363.47436775 19.52852821 363.48031237 17.10304451 363.4918375 C13.78301863 363.50683609 10.46350161 363.50314757 7.14346313 363.49498463 C6.19109447 363.50372315 5.23872581 363.51246168 4.25749749 363.521465 C-10.41206175 363.42445067 -23.93903329 357.75084041 -34.5302887 347.61859608 C-42.34826565 339.00120727 -48.89786787 327.23068 -48.91562271 315.34395123 C-48.91946386 314.37725345 -48.923305 313.41055567 -48.92726254 312.41456401 C-48.92639606 311.3552439 -48.92552958 310.29592378 -48.92463684 309.20450306 C-48.92760796 308.07699701 -48.93057909 306.94949097 -48.93364024 305.78781807 C-48.94233772 301.99556345 -48.94383639 298.20334036 -48.94532776 294.41107655 C-48.94941711 291.69768048 -48.95495917 288.98428775 -48.96037292 286.27089405 C-48.97395255 278.88846516 -48.97998063 271.5060417 -48.98438358 264.12360239 C-48.98714712 259.51229424 -48.99138472 254.90098817 -48.99588776 250.28968143 C-49.00808086 237.51807951 -49.01837949 224.74647926 -49.02176285 211.97487164 C-49.02198241 211.15749942 -49.02220198 210.34012721 -49.0224282 209.49798615 C-49.02264648 208.67867255 -49.02286476 207.85935895 -49.02308965 207.01521766 C-49.02353311 205.35501567 -49.02397967 203.69481369 -49.02442932 202.0346117 C-49.02465075 201.21109652 -49.02487218 200.38758134 -49.02510032 199.53911115 C-49.02904629 186.20241849 -49.04649397 172.86578053 -49.06978884 159.52910899 C-49.09352163 145.83092157 -49.10596561 132.13276157 -49.10713077 118.43455327 C-49.10804654 110.74584895 -49.1137741 103.05721588 -49.13195038 95.36853123 C-49.14737752 88.81971127 -49.15245652 82.27098457 -49.14421228 75.72214989 C-49.14031468 72.38313126 -49.14283479 69.04445243 -49.15526962 65.70543194 C-49.16798207 62.07874083 -49.16211547 58.4525289 -49.15168762 54.82584095 C-49.15974403 53.77990517 -49.16780043 52.73396938 -49.17610097 51.65633857 C-49.07484354 36.56195217 -43.05280743 24.50434614 -32.61231995 13.83734608 C-23.76672214 5.38271392 -12.35241749 0.02149447 0 0 Z M-20.78419495 34.13422108 C-24.19266864 39.62519898 -26.90554285 45.12892383 -26.91562271 51.66368008 C-26.91946386 52.59765295 -26.923305 53.53162582 -26.92726254 54.4939009 C-26.92639606 55.52179744 -26.92552958 56.54969398 -26.92463684 57.6087389 C-26.92760796 58.69934411 -26.93057909 59.78994933 -26.93364024 60.91360319 C-26.94234751 64.58692228 -26.94383721 68.26020887 -26.94532776 71.93353748 C-26.94995455 74.55973855 -26.95497902 77.18593895 -26.96037292 79.81213856 C-26.97396027 86.96109584 -26.97998192 94.11004751 -26.98438358 101.25901556 C-26.987146 105.72373956 -26.99138341 110.1884614 -26.99588776 114.65318394 C-27.00808221 127.01641739 -27.01838035 139.37964911 -27.02176285 151.74288845 C-27.02198241 152.53433884 -27.02220198 153.32578924 -27.0224282 154.14122298 C-27.02264648 154.9345656 -27.02286476 155.72790823 -27.02308965 156.54529154 C-27.02353311 158.15289696 -27.02397968 159.76050238 -27.02442932 161.3681078 C-27.02465075 162.16553526 -27.02487218 162.96296272 -27.02510032 163.78455465 C-27.02904618 176.6984298 -27.04649292 189.61224845 -27.06978884 202.52610178 C-27.09351737 215.78693799 -27.10596543 229.04774587 -27.10713077 242.30860364 C-27.10804682 249.75304672 -27.11378129 257.19741624 -27.13195038 264.64183903 C-27.14737182 270.98283716 -27.15245991 277.323739 -27.14421228 283.66475232 C-27.14031261 286.89829681 -27.14284266 290.13160752 -27.15526962 293.36513615 C-27.16797078 296.87619094 -27.16212165 300.38674998 -27.15168762 303.8978014 C-27.15974403 304.91231361 -27.16780043 305.92682582 -27.17610097 306.97208083 C-27.10333362 317.45810734 -24.30960991 325.65100471 -16.78419495 333.13422108 C-8.44770199 339.3966267 -0.70445862 341.4450542 9.52352905 341.37473011 C10.4401422 341.37643896 11.35675535 341.37814781 12.30114466 341.37990844 C15.36123887 341.38319303 18.42111202 341.3722166 21.48118591 341.36127186 C23.67923477 341.36070752 25.877284 341.36102474 28.07533264 341.36215687 C34.03550493 341.3627305 39.99559665 341.35097433 45.95575023 341.33700895 C52.18708942 341.32450348 58.41843047 341.32333124 64.64978027 341.32095814 C75.10645413 341.31544892 85.56310043 341.30295787 96.01976013 341.28509998 C106.7879878 341.26672918 117.55620745 341.25257856 128.32444763 341.24408436 C128.98870858 341.24355891 129.65296953 341.24303346 130.3373596 341.24249209 C133.669913 341.23988193 137.00246645 341.23735905 140.33501995 341.23486829 C167.96196887 341.21396516 195.58888488 341.17878817 223.21580505 341.13422108 C220.72756281 338.62794109 218.22043173 336.23248901 215.52830505 333.94672108 C193.64105151 314.77008858 180.39752435 290.00472236 176.21580505 261.13422108 C176.0055998 256.84380451 175.98779488 252.55620912 175.97557068 248.26093006 C175.96597778 246.23323176 175.93495701 244.20659923 175.90330505 242.17914295 C175.6874287 215.59519393 185.85209503 190.79476171 202.21580505 170.13422108 C202.96217224 169.19062733 203.70853943 168.24703358 204.4775238 167.27484608 C215.53704955 154.28131159 229.66803621 144.89303755 245.21580505 138.13422108 C246.27928162 137.65468983 247.34275818 137.17515858 248.4384613 136.68109608 C275.26555636 125.42117755 308.00071841 125.40057943 335.02830505 135.94672108 C339.95418584 137.99267156 344.69859935 140.35871201 349.46458435 142.75018787 C350.11435997 143.07568371 350.76413559 143.40117954 351.43360138 143.73653889 C353.02791527 144.53527545 354.62189373 145.33468148 356.21580505 146.13422108 C356.30872629 133.67703403 356.37968225 121.21993024 356.42305374 108.76246643 C356.44387608 102.97716128 356.47209583 97.19209428 356.51756287 91.40692616 C356.56121157 85.81776895 356.58498238 80.22883999 356.59531403 74.63952541 C356.60267131 72.51339917 356.61703798 70.38728458 356.63872528 68.26125622 C356.77032878 54.81823412 356.87344813 42.87763166 347.9853363 31.91937733 C342.28576976 26.16948349 335.56310975 22.40961642 327.41920471 21.89371204 C325.9791762 21.88797249 324.53907703 21.89309901 323.09910583 21.9071703 C322.30819046 21.90687824 321.51727509 21.90658619 320.70239258 21.90628529 C318.10518675 21.90767134 315.50827286 21.9231982 312.91111755 21.93890858 C311.10365455 21.94264128 309.29618951 21.94548704 307.48872375 21.94748402 C302.74419006 21.95510017 297.99977988 21.97473128 293.2552948 21.99689198 C288.40881521 22.01739393 283.56231556 22.02649502 278.71580505 22.03656483 C269.21575095 22.05797912 259.7157883 22.09209064 250.21580505 22.13422108 C250.21215942 23.3191515 250.20851379 24.50408192 250.20475769 25.72491932 C250.16777214 36.90686101 250.10996024 48.08852822 250.03190231 59.27026081 C249.99243987 65.01854542 249.96024517 70.76667712 249.94480896 76.51508045 C249.92963452 82.06549973 249.8951743 87.61549858 249.84749603 93.16573048 C249.83269048 95.2803071 249.82476452 97.39494375 249.8239212 99.50957203 C249.82154737 102.47800678 249.7944334 105.44528361 249.76170349 108.41351795 C249.76673386 109.28242664 249.77176422 110.15133533 249.77694702 111.04657459 C249.66836302 117.43664304 248.23476541 122.86663182 243.80411911 127.66216755 C238.35650012 132.47155723 233.20500619 133.67838414 226.12205505 133.49750233 C218.48967683 132.54345505 213.5685439 128.9879488 208.84080505 123.07172108 C208.23494568 122.23511951 207.6290863 121.39851795 207.00486755 120.53656483 C203.52831943 115.73121745 203.52831943 115.73121745 198.27830505 113.57172108 C192.50268523 114.63254921 189.26564011 120.20822721 185.77830505 124.63422108 C179.95896771 131.7905632 174.51768241 137.30189765 164.90330505 138.57172108 C153.11383908 137.17297088 146.30393035 130.64104491 138.8993988 122.03265858 C135.52790488 118.23092761 132.61278985 115.63314422 127.71580505 113.88422108 C123.78625112 114.1649035 123.46885275 114.44367739 121.02830505 117.25922108 C119.4021219 119.39491331 117.93139173 121.57099868 116.46580505 123.82172108 C112.21437825 128.19124307 106.54372904 129.85326473 100.59080505 130.57172108 C93.48034373 129.64999461 88.28552353 127.20393956 83.21580505 122.13422108 C79.95114892 116.98920242 79.77356062 112.72184798 79.78343201 106.82416248 C79.76814453 105.4475948 79.76814453 105.4475948 79.75254822 104.04321766 C79.72246688 101.02401047 79.71315961 98.00512082 79.7040863 94.98578358 C79.68723604 92.88684508 79.66908533 90.78791664 79.64968872 88.68900013 C79.60222054 83.17516698 79.57239046 77.66137468 79.54624939 72.14740467 C79.51642793 66.51662603 79.46990299 60.88598804 79.42478943 55.25531483 C79.33879242 44.21502386 79.27143099 33.17470392 79.21580505 22.13422108 C68.82750115 22.04125662 58.43929735 21.97032236 48.05066109 21.92697239 C43.22600157 21.90615923 38.40162811 21.87795707 33.57713318 21.83246326 C28.91516714 21.78878065 24.25347506 21.76503687 19.59132004 21.7547121 C17.81882799 21.74736077 16.04634976 21.73300587 14.27397537 21.71130085 C0.09784226 21.54470932 -10.95080337 22.74920953 -20.78419495 34.13422108 Z M101.21580505 22.13422108 C101.21580505 49.85422108 101.21580505 77.57422108 101.21580505 106.13422108 C102.86580505 104.48422108 104.51580505 102.83422108 106.21580505 101.13422108 C111.9597363 95.88976212 117.82382802 92.64785378 125.6337738 92.00922108 C138.75966217 92.64466499 149.28732904 99.66247406 157.84080505 109.00922108 C159.65375311 111.0339762 161.43942296 113.07703631 163.21580505 115.13422108 C167.06380851 113.85155326 167.68020435 112.28813613 169.90330505 108.94672108 C175.89253235 100.50934248 183.34022304 95.15857842 193.43455505 92.56390858 C202.42195833 91.07655663 210.36059846 94.6095179 217.87986755 99.30609608 C221.19527277 101.90076103 223.53217594 104.94532873 225.9384613 108.37640858 C226.57074646 109.24652576 226.57074646 109.24652576 227.21580505 110.13422108 C227.54580505 110.13422108 227.87580505 110.13422108 228.21580505 110.13422108 C228.21580505 81.09422108 228.21580505 52.05422108 228.21580505 22.13422108 C186.30580505 22.13422108 144.39580505 22.13422108 101.21580505 22.13422108 Z M230.21580505 173.13422108 C229.54162537 173.66402576 228.86744568 174.19383045 228.1728363 174.73968983 C211.53930105 188.18596084 200.4380452 210.69919754 197.49705505 231.65375233 C195.35292706 258.1873362 200.41762809 284.5625794 217.88768005 305.42328358 C220.54488544 308.45361237 223.34981014 311.30088707 226.21580505 314.13422108 C227.41850037 315.35238514 227.41850037 315.35238514 228.64549255 316.59515858 C246.50131249 333.74845445 271.72593877 341.58687352 296.09080505 341.34515858 C321.41948772 340.36633067 345.8337706 328.7749335 363.25486755 310.43500233 C380.63000883 290.04863138 389.94473208 265.13208154 388.21580505 238.13422108 C385.27204217 211.89319365 373.61887047 188.19665484 353.21580505 171.13422108 C316.58947537 142.92518513 265.80363561 142.46353464 230.21580505 173.13422108 Z M271.21580505 361.13422108 C271.16610326 367.23569033 271.12994313 373.33703985 271.10594177 379.43866444 C271.09592837 381.51127649 271.0823137 383.58387457 271.06492615 385.65643787 C271.04047192 388.64776542 271.02927505 391.63890502 271.02049255 394.63031483 C271.01016998 395.54630955 270.99984741 396.46230427 270.98921204 397.4060564 C270.98773087 406.03674807 271.83631658 413.60070966 277.45799255 420.40375233 C281.7659108 424.64465852 286.20789729 426.33935444 292.21580505 426.63422108 C298.16059761 426.3515699 302.6237932 424.56495219 306.97361755 420.48578358 C311.2153883 415.79319661 313.47617219 411.51526116 313.44285583 405.06854725 C313.44262924 403.59758846 313.44262924 403.59758846 313.44239807 402.09691334 C313.4320755 401.05090458 313.42175293 400.00489582 313.41111755 398.92718983 C313.40687271 397.30639263 313.40687271 397.30639263 313.40254211 395.65285206 C313.39136638 392.20902807 313.36626624 388.76546618 313.34080505 385.32172108 C313.3307719 382.98383421 313.32164663 380.64594327 313.3134613 378.3080492 C313.29143556 372.58335072 313.25798373 366.85880463 313.21580505 361.13422108 C312.01818542 361.29648182 310.8205658 361.45874256 309.58665466 361.6259203 C306.13566815 362.05600738 302.76367845 362.26289214 299.2822113 362.26703358 C298.22066833 362.26832264 297.15912537 362.2696117 296.06541443 362.27093983 C294.98066833 362.26707264 293.89592224 362.26320545 292.77830505 362.25922108 C291.15698669 362.26502186 291.15698669 362.26502186 289.50291443 362.27093983 C287.90866638 362.26900623 287.90866638 362.26900623 286.2822113 362.26703358 C285.33289734 362.26590565 284.38358337 362.26477772 283.40550232 362.26361561 C279.31398925 362.09763766 275.27883446 361.62970816 271.21580505 361.13422108 Z " fill="#ffffff" transform="translate(80.78419494628906,31.865778923034668)"/>
<path d="M0 0 C3.40367358 0.50485111 5.15778544 1.85009633 7.44921875 4.36328125 C9.13086457 7.72657288 8.62403858 11.53124534 8.64208984 15.23168945 C8.65026733 16.15053925 8.65844482 17.06938904 8.66687012 18.01608276 C8.69174023 21.06540266 8.70824373 24.11467597 8.72265625 27.1640625 C8.72797993 28.20408102 8.7333036 29.24409954 8.7387886 30.31563377 C8.76552642 35.81970864 8.78489985 41.32376078 8.79931641 46.82788086 C8.81597143 52.51780732 8.86075488 58.20715537 8.91168785 63.89686298 C8.94531491 68.26774271 8.95688885 72.63848434 8.96254349 77.00948143 C8.96926785 79.10708223 8.9845205 81.20467356 9.0084343 83.30214882 C9.03999271 86.23747775 9.04013657 89.17123597 9.03271484 92.10668945 C9.04912018 92.97389114 9.06552551 93.84109283 9.08242798 94.73457336 C9.03682446 99.13857053 8.88136235 100.82279686 6.03775024 104.37931824 C2.38308725 107.18041076 0.14477656 107.70764405 -4.515625 107.6484375 C-7.74113747 107.19649429 -9.35978322 105.68316151 -11.55078125 103.36328125 C-14.2584641 99.491941 -13.83899262 95.16846104 -13.82543945 90.63500977 C-13.83310585 89.31481842 -13.83310585 89.31481842 -13.84092712 87.96795654 C-13.85482439 85.05929764 -13.85386628 82.15087565 -13.8515625 79.2421875 C-13.85544929 77.2196392 -13.85978393 75.19709171 -13.86454773 73.17454529 C-13.87201019 68.93526565 -13.87171842 64.69606928 -13.86645508 60.45678711 C-13.8606598 55.02488214 -13.87759283 49.59331806 -13.90079975 44.16146946 C-13.91553298 39.98445137 -13.91640935 35.80751547 -13.91329002 31.630476 C-13.91380342 29.62781028 -13.9190446 27.62513999 -13.92910194 25.62249947 C-13.94144124 22.82175682 -13.93468973 20.0216793 -13.9230957 17.22094727 C-13.93073944 16.39429062 -13.93838318 15.56763397 -13.94625854 14.71592712 C-13.89488113 9.09952402 -12.63291484 6.05123337 -9.16796875 1.578125 C-6.3341861 -0.55063443 -3.4169106 -0.09477562 0 0 Z " fill="#ffffff" transform="translate(375.55078125,223.63671875)"/>
<path d="M0 0 C1.20174866 -0.01606293 2.40349731 -0.03212585 3.6416626 -0.04867554 C9.14505867 -0.0930516 14.64832299 -0.13463735 20.15185547 -0.15722656 C23.0561482 -0.17055236 25.95973604 -0.19837781 28.86376953 -0.23925781 C32.37397004 -0.28866904 35.88353244 -0.31335789 39.39406586 -0.32045364 C41.37607992 -0.3304003 43.35792428 -0.36462563 45.33966064 -0.39926147 C55.38146552 -0.37569385 55.38146552 -0.37569385 59.07226562 2.60058594 C62.09668846 6.17031934 62.66238424 8.35851551 62.62792969 13.08740234 C61.99273655 16.80880562 59.92876453 18.59599959 57.26855469 21.19287109 C54.59792908 22.5281839 52.52771167 22.34212867 49.53710938 22.36987305 C48.33536072 22.38270828 47.13361206 22.39554352 45.89544678 22.4087677 C43.93771332 22.4198481 43.93771332 22.4198481 41.94042969 22.43115234 C41.27676643 22.43522787 40.61310318 22.4393034 39.92932892 22.44350243 C36.41464041 22.46436506 32.89999094 22.47866424 29.38525391 22.48803711 C25.76254293 22.49908474 22.14044906 22.53346384 18.51795578 22.57320881 C15.72630712 22.59941552 12.93480436 22.60773261 10.14304352 22.61131859 C8.16108949 22.61853166 6.17923535 22.6449564 4.19744873 22.67170715 C-7.07206563 22.64455721 -7.07206563 22.64455721 -11.73144531 18.19287109 C-13.58871147 14.47833878 -13.31645621 10.23707684 -12.73144531 6.19287109 C-8.8061743 1.13133742 -6.19072778 0.07502951 0 0 Z " fill="#ffffff" transform="translate(108.7314453125,308.80712890625)"/>
<path d="M0 0 C1.16163162 -0.01283524 2.32326324 -0.02567047 3.52009583 -0.03889465 C4.77634262 -0.04628159 6.03258942 -0.05366852 7.3269043 -0.0612793 C8.61799606 -0.06935104 9.90908783 -0.07742279 11.23930359 -0.08573914 C13.97382475 -0.10075191 16.70832006 -0.11059662 19.44287109 -0.11816406 C22.93664758 -0.12922096 26.42978585 -0.16361777 29.92333698 -0.20333576 C33.26616674 -0.23584834 36.60892867 -0.24028438 39.9519043 -0.2487793 C41.2020784 -0.26628738 42.4522525 -0.28379547 43.74031067 -0.30183411 C54.62443531 -0.2746438 54.62443531 -0.2746438 59.33862305 4.17700195 C61.80645464 7.87874935 62.01935037 10.88193671 61.33862305 15.17700195 C58.33862305 20.67700195 58.33862305 20.67700195 55.33862305 22.17700195 C53.36393783 22.28883828 51.38548521 22.33629891 49.40771484 22.35400391 C48.16269699 22.36683914 46.91767914 22.37967438 45.63493347 22.39289856 C44.26924029 22.40106623 42.90354261 22.40850991 41.5378418 22.4152832 C40.85086527 22.41935873 40.16388874 22.42343426 39.45609474 22.42763329 C35.8193657 22.44849371 32.18267437 22.46279499 28.54589844 22.47216797 C24.79306297 22.48322721 21.0408213 22.51762054 17.28819561 22.55733967 C14.39965223 22.58351107 11.51125016 22.59186025 8.62259865 22.59544945 C7.23952033 22.60031484 5.85644829 22.6119277 4.47348595 22.63048744 C2.53504129 22.65488294 0.59630773 22.65149366 -1.34228516 22.64697266 C-2.9953643 22.65577202 -2.9953643 22.65577202 -4.68183899 22.66474915 C-8.35544194 22.06338425 -10.01188378 20.73857224 -12.66137695 18.17700195 C-14.51992977 14.45989632 -14.24046135 10.22422914 -13.66137695 6.17700195 C-9.6977271 0.92784404 -6.33139619 0.06090427 0 0 Z " fill="#ffffff" transform="translate(109.661376953125,265.822998046875)"/>
<path d="M0 0 C2.82424288 2.19022918 4.41508603 3.83017207 6 7 C6.11019544 8.57113906 6.15909332 10.14678278 6.17700195 11.72167969 C6.18983719 12.70320007 6.20267242 13.68472046 6.21589661 14.69598389 C6.22328354 15.76052795 6.23067047 16.82507202 6.23828125 17.921875 C6.246353 19.01461731 6.25442474 20.10735962 6.26274109 21.23321533 C6.27659019 23.54999196 6.28730864 25.86678906 6.29516602 28.18359375 C6.31236269 31.7217496 6.35624077 35.25896736 6.40039062 38.796875 C6.41051878 41.04686812 6.4190345 43.2968692 6.42578125 45.546875 C6.44328934 46.60332214 6.46079742 47.65976929 6.47883606 48.74822998 C6.46101942 54.80245378 6.09836929 58.41669278 2 63 C-1.71453232 64.85726616 -5.95579425 64.58501089 -10 64 C-12.82424288 61.80977082 -14.41508603 60.16982793 -16 57 C-16.11019544 55.42886094 -16.15909332 53.85321722 -16.17700195 52.27832031 C-16.18983719 51.29679993 -16.20267242 50.31527954 -16.21589661 49.30401611 C-16.22328354 48.23947205 -16.23067047 47.17492798 -16.23828125 46.078125 C-16.246353 44.98538269 -16.25442474 43.89264038 -16.26274109 42.76678467 C-16.27659019 40.45000804 -16.28730864 38.13321094 -16.29516602 35.81640625 C-16.31236269 32.2782504 -16.35624077 28.74103264 -16.40039062 25.203125 C-16.41051878 22.95313188 -16.4190345 20.7031308 -16.42578125 18.453125 C-16.44328934 17.39667786 -16.46079742 16.34023071 -16.47883606 15.25177002 C-16.46101942 9.19754622 -16.09836929 5.58330722 -12 1 C-8.28546768 -0.85726616 -4.04420575 -0.58501089 0 0 Z " fill="#ffffff" transform="translate(421,224)"/>
<path d="M0 0 C3.34625024 2.52676039 4.67977847 4.03933542 6 8 C6.10150269 9.55344107 6.14834158 11.11077936 6.16113281 12.66748047 C6.17074036 13.61211151 6.1803479 14.55674255 6.19024658 15.52999878 C6.19449646 16.54877106 6.19874634 17.56754333 6.203125 18.6171875 C6.20882507 19.66649445 6.21452515 20.71580139 6.22039795 21.79690552 C6.22984686 24.01775097 6.2363815 26.23861044 6.24023438 28.45947266 C6.24994208 31.85474112 6.28096784 35.24940482 6.3125 38.64453125 C6.31902995 40.80207974 6.32428045 42.95963256 6.328125 45.1171875 C6.3404718 46.13191132 6.3528186 47.14663513 6.36553955 48.19210815 C6.33811226 56.88278671 6.33811226 56.88278671 3 61 C2.54367187 61.58910156 2.08734375 62.17820312 1.6171875 62.78515625 C-1.21659515 64.91391568 -4.13387065 64.45805687 -7.55078125 64.36328125 C-10.95445483 63.85843014 -12.70856669 62.51318492 -15 60 C-16.23680696 57.52638608 -16.14687766 55.84596224 -16.17700195 53.07885742 C-16.18983719 52.05406784 -16.20267242 51.02927826 -16.21589661 49.97343445 C-16.22328354 48.86200577 -16.23067047 47.75057709 -16.23828125 46.60546875 C-16.246353 45.46596268 -16.25442474 44.3264566 -16.26274109 43.15242004 C-16.27658987 40.73728969 -16.28730846 38.3221397 -16.29516602 35.90698242 C-16.31238115 32.21300176 -16.35626194 28.51991529 -16.40039062 24.82617188 C-16.41051706 22.48177743 -16.41903331 20.13737536 -16.42578125 17.79296875 C-16.45204338 16.13493477 -16.45204338 16.13493477 -16.47883606 14.44340515 C-16.45711082 6.76310335 -16.45711082 6.76310335 -14.09838867 2.82543945 C-9.88280469 -0.84179981 -5.39411808 -0.77179991 0 0 Z " fill="#ffffff" transform="translate(336,224)"/>
<path d="M0 0 C3.9598821 2.13224421 6.47894751 3.74384394 8 8 C8.2446335 10.83888642 8.3701245 13.53745756 8.375 16.375 C8.39949219 17.1175 8.42398437 17.86 8.44921875 18.625 C8.47704848 23.87554311 7.47483269 26.84776311 4 31 C0.29825261 33.4678316 -2.70493475 33.68072732 -7 33 C-12.5 30 -12.5 30 -14 27 C-14.31877503 23.56973857 -14.32426215 20.13075474 -14.375 16.6875 C-14.41238281 15.73681641 -14.44976562 14.78613281 -14.48828125 13.80664062 C-14.57683197 6.76685855 -14.57683197 6.76685855 -11.6640625 2.89453125 C-7.7379051 0.10246917 -4.7498639 -0.46567293 0 0 Z " fill="#ffffff" transform="translate(334,298)"/>
<path d="M0 0 C3.6578218 2.03993908 5.66946174 3.50419262 8 7 C8.47554742 10.08783741 8.41630313 13.1918494 8.4375 16.3125 C8.47037109 17.15490234 8.50324219 17.99730469 8.53710938 18.86523438 C8.57442324 23.20381874 8.3933028 26.10209396 5.59765625 29.54296875 C2.07121687 32.87850314 -0.0033485 33.39501203 -4.89453125 33.359375 C-8.61593453 32.72418186 -10.40312849 30.66020984 -13 28 C-14.75021631 24.49956737 -14.26948691 20.54434036 -14.3125 16.6875 C-14.34150391 15.83220703 -14.37050781 14.97691406 -14.40039062 14.09570312 C-14.44287101 9.87707366 -14.39212177 7.62320791 -12.09765625 3.9765625 C-8.23370055 0.3356657 -5.35086087 -0.6421033 0 0 Z " fill="#ffffff" transform="translate(419,298)"/>
</svg>
